# xmcd CD database file
#
# Track frame offsets:
#	150
#	9131
#	22135
#	40293
#	52923
#	68057
#	77270
#	93486
#	117354
#	128710
#	136942
#	157497
#
# Disc length: 2256 seconds
#
# Revision: 0
# Processed by: cddbd v1.5.1PL2 Copyright (c) Steve Scherf et al.
# Submitted via: CDex 1.51
#
DISCID=9508ce0c
DTITLE=Megan Jerome Trio - This Uneven Pace
DYEAR=2006
DGENRE=Jazz
TTITLE0=Slippery
TTITLE1=Skating
TTITLE2=Campfire
TTITLE3=A Prayer for Good
TTITLE4=Up She Walks
TTITLE5=Promenade en L'air
TTITLE6=Rearview Mirror
TTITLE7=Copper And Stars
TTITLE8=Till There Was You
TTITLE9=UpUpUp
TTITLE10=Velvet
TTITLE11=I am Short
EXTD=YEAR: 2006
EXTT0=
EXTT1=
EXTT2=
EXTT3=
EXTT4=
EXTT5=
EXTT6=
EXTT7=
EXTT8=
EXTT9=
EXTT10=
EXTT11=
PLAYORDER=
